<svg width="467" height="345" viewBox="0 0 467 345" fill="none" xmlns="http://www.w3.org/2000/svg">
<path d="M63.7456 17.946L73.5506 46.831C73.7272 47.361 73.9569 48.1737 74.2396 49.269C74.5576 50.329 74.7342 51.2653 74.7696 52.078L77.7906 51.919L77.6316 56H63.4276L63.6396 52.502C65.1236 52.502 65.9716 52.0603 66.1836 51.177C66.3956 50.2583 66.2896 49.1453 65.8656 47.838L64.9646 44.923L53.3576 45.135L52.3506 47.626C52.1739 48.0853 51.8912 48.7743 51.5026 49.693C51.1492 50.5763 50.7959 51.3183 50.4426 51.919L54.3646 51.76L54.0996 56H42.7576L42.9696 52.343C43.9589 52.343 44.7539 52.0603 45.3546 51.495C45.9906 50.9297 46.5382 50.1877 46.9976 49.269C47.4569 48.3503 47.9162 47.361 48.3756 46.301L60.1946 17.946H63.7456ZM60.0886 27.274C59.9472 27.8747 59.6646 28.7757 59.2406 29.977C58.8166 31.1783 58.2689 32.6093 57.5976 34.27L54.8946 41.16H63.7986L61.7316 34.535C61.3782 33.263 61.0426 31.991 60.7246 30.719C60.4066 29.4117 60.1946 28.2633 60.0886 27.274ZM82.585 56C82.5143 55.258 82.4613 54.7457 82.426 54.463C82.426 54.145 82.426 53.8093 82.426 53.456C82.426 52.3253 82.5143 50.8943 82.691 49.163C82.903 47.3963 83.115 45.6297 83.327 43.863C83.6097 41.9903 83.8393 40.259 84.016 38.669C84.228 37.0437 84.334 35.8953 84.334 35.224C84.334 34.6233 84.2457 34.2523 84.069 34.111C83.9277 33.9343 83.7687 33.846 83.592 33.846C83.2033 33.846 82.797 34.1463 82.373 34.747C81.949 35.3477 81.5073 36.443 81.048 38.033L78.133 37.185C78.3097 36.443 78.557 35.595 78.875 34.641C79.193 33.687 79.6347 32.786 80.2 31.938C80.7653 31.0547 81.4543 30.3303 82.267 29.765C83.0797 29.1997 84.069 28.917 85.235 28.917C86.3657 28.917 87.3903 29.2527 88.309 29.924C89.2277 30.5953 89.687 31.8673 89.687 33.74C89.687 34.3053 89.634 34.9767 89.528 35.754C89.4573 36.5313 89.3337 37.4323 89.157 38.457H89.21C90.164 35.7717 91.1357 33.7577 92.125 32.415C93.1497 31.037 94.1567 30.1183 95.146 29.659C96.1353 29.1643 97.054 28.917 97.902 28.917C99.2447 28.917 100.322 29.288 101.135 30.03C101.948 30.7367 102.354 31.7083 102.354 32.945C102.354 33.8637 102.018 34.694 101.347 35.436C100.711 36.178 99.863 36.549 98.803 36.549C98.0257 36.549 97.3367 36.3017 96.736 35.807C96.1353 35.3123 95.8527 34.641 95.888 33.793C95.2873 33.7223 94.669 34.0757 94.033 34.853C93.4323 35.595 92.8493 36.6373 92.284 37.98C91.754 39.2873 91.2593 40.7537 90.8 42.379C90.376 44.0043 90.0227 45.665 89.74 47.361C89.4927 49.057 89.369 50.6647 89.369 52.184C89.369 52.6433 89.3867 53.297 89.422 54.145C89.4573 54.9577 89.4927 55.576 89.528 56H82.585ZM118.745 28.917C119.734 28.917 120.883 29.023 122.19 29.235C123.533 29.4117 124.928 29.6767 126.377 30.03C126.2 31.3373 125.971 32.945 125.688 34.853C125.405 36.761 125.123 38.722 124.84 40.736C124.593 42.7147 124.381 44.552 124.204 46.248C124.027 47.9087 123.939 49.1983 123.939 50.117C123.939 50.753 124.01 51.177 124.151 51.389C124.328 51.5657 124.504 51.654 124.681 51.654C125.105 51.654 125.547 51.3537 126.006 50.753C126.465 50.1523 126.925 49.057 127.384 47.467L130.246 48.315C130.105 49.057 129.857 49.905 129.504 50.859C129.151 51.813 128.674 52.7317 128.073 53.615C127.508 54.463 126.783 55.1697 125.9 55.735C125.052 56.3003 124.045 56.583 122.879 56.583C121.748 56.583 120.759 56.2473 119.911 55.576C119.063 54.9047 118.639 53.6327 118.639 51.76C118.639 51.3007 118.657 50.7883 118.692 50.223C118.727 49.6577 118.78 49.1453 118.851 48.686H118.798C117.491 51.76 116.06 53.8447 114.505 54.94C112.986 56.0353 111.413 56.583 109.788 56.583C107.845 56.583 106.184 55.8057 104.806 54.251C103.428 52.661 102.739 50.223 102.739 46.937C102.739 44.499 103.092 42.2023 103.799 40.047C104.506 37.8917 105.548 35.9837 106.926 34.323C108.304 32.627 109.982 31.302 111.961 30.348C113.94 29.394 116.201 28.917 118.745 28.917ZM116.784 32.415C114.77 32.415 113.127 33.6693 111.855 36.178C110.618 38.6867 110 42.3613 110 47.202C110 48.6507 110.177 49.799 110.53 50.647C110.883 51.4597 111.378 51.866 112.014 51.866C112.791 51.866 113.516 51.4773 114.187 50.7C114.858 49.8873 115.459 48.8097 115.989 47.467C116.554 46.089 117.031 44.5697 117.42 42.909C117.844 41.213 118.18 39.4993 118.427 37.768C118.71 36.0013 118.886 34.323 118.957 32.733C118.78 32.6623 118.462 32.5917 118.003 32.521C117.579 32.4503 117.173 32.415 116.784 32.415ZM178.875 18.9L178.557 30.878H175.059C175.2 28.016 174.723 25.896 173.628 24.518C172.532 23.1047 170.978 22.4157 168.964 22.451H166.42L165.148 47.308C165.112 48.262 165.042 49.1807 164.936 50.064C164.83 50.9473 164.741 51.6187 164.671 52.078C165.059 52.0427 165.536 52.025 166.102 52.025C166.667 51.9897 167.215 51.972 167.745 51.972C168.275 51.9367 168.663 51.919 168.911 51.919L168.699 56H153.329L153.541 52.502C154.353 52.4667 155.042 52.3607 155.608 52.184C156.173 52.0073 156.615 51.601 156.933 50.965C157.286 50.329 157.498 49.3043 157.569 47.891L158.894 22.504H156.456C154.442 22.5393 152.799 23.2283 151.527 24.571C150.29 25.9137 149.601 28.016 149.46 30.878H145.962L146.863 18.9H178.875ZM191.302 28.917C193.28 28.917 195.065 29.3763 196.655 30.295C198.28 31.2137 199.57 32.5563 200.524 34.323C201.478 36.0897 201.955 38.2273 201.955 40.736C201.955 43.5273 201.407 46.142 200.312 48.58C199.252 50.9827 197.732 52.926 195.754 54.41C193.775 55.8587 191.408 56.583 188.652 56.583C186.284 56.583 184.306 56.053 182.716 54.993C181.126 53.8977 179.942 52.4313 179.165 50.594C178.387 48.7567 177.999 46.7427 177.999 44.552C177.999 41.7253 178.529 39.1283 179.589 36.761C180.684 34.3937 182.221 32.5033 184.2 31.09C186.214 29.6413 188.581 28.917 191.302 28.917ZM190.507 32.415C189.447 32.3797 188.51 32.8567 187.698 33.846C186.92 34.8 186.302 36.0897 185.843 37.715C185.419 39.3403 185.207 41.1247 185.207 43.068C185.207 44.128 185.26 45.241 185.366 46.407C185.507 47.573 185.737 48.6683 186.055 49.693C186.408 50.6823 186.85 51.495 187.38 52.131C187.945 52.767 188.652 53.085 189.5 53.085C190.418 53.085 191.196 52.7317 191.832 52.025C192.468 51.3183 192.98 50.4173 193.369 49.322C193.793 48.1913 194.093 47.0077 194.27 45.771C194.482 44.5343 194.605 43.3683 194.641 42.273C194.676 41.319 194.641 40.2767 194.535 39.146C194.429 38.0153 194.234 36.9377 193.952 35.913C193.669 34.8883 193.245 34.058 192.68 33.422C192.114 32.7507 191.39 32.415 190.507 32.415ZM66.5566 125.53L60.0906 108.093C59.8433 107.422 59.5253 106.468 59.1366 105.231C58.748 103.959 58.3593 102.563 57.9706 101.044C57.582 99.5247 57.2463 98.0583 56.9636 96.645H56.9106C56.8753 98.447 56.8223 100.178 56.7516 101.839C56.7163 103.5 56.6456 105.125 56.5396 106.715L55.9566 116.308C55.9213 117.262 55.8506 118.181 55.7446 119.064C55.6386 119.947 55.5503 120.619 55.4796 121.078C56.0803 121.007 56.8046 120.972 57.6526 120.972C58.536 120.937 59.1543 120.919 59.5076 120.919L59.2956 125H47.2116L47.4236 121.502C48.2363 121.467 48.9076 121.361 49.4376 121.184C50.003 121.007 50.4446 120.601 50.7626 119.965C51.0806 119.329 51.2926 118.304 51.3986 116.891L52.7766 96.592C52.8473 95.638 52.918 94.7193 52.9886 93.836C53.0946 92.9527 53.183 92.2813 53.2536 91.822C52.6883 91.8573 51.964 91.8927 51.0806 91.928C50.2326 91.928 49.6143 91.9457 49.2256 91.981L49.4906 87.9H60.8326L68.0936 108.464C68.6943 110.089 69.1713 111.609 69.5246 113.022C69.9133 114.435 70.2843 115.778 70.6376 117.05H70.6906C71.1853 115.813 71.68 114.577 72.1746 113.34C72.6693 112.103 73.1463 110.92 73.6056 109.789C75.1603 106.114 76.6973 102.457 78.2166 98.818C79.736 95.1787 81.2553 91.5393 82.7746 87.9H95.1236L94.9116 91.398C94.1343 91.4333 93.4453 91.5393 92.8446 91.716C92.244 91.8927 91.767 92.299 91.4136 92.935C91.0956 93.5357 90.919 94.5603 90.8836 96.009L90.6186 116.308C90.6186 117.262 90.5656 118.181 90.4596 119.064C90.3536 119.947 90.2476 120.619 90.1416 121.078C90.7423 121.007 91.4666 120.972 92.3146 120.972C93.198 120.937 93.8163 120.919 94.1696 120.919L93.9576 125H79.1176L79.3296 121.502C80.1423 121.467 80.8313 121.361 81.3966 121.184C81.9973 121.007 82.4566 120.601 82.7746 119.965C83.128 119.329 83.3046 118.304 83.3046 116.891L83.4636 105.655C83.499 105.231 83.5166 104.489 83.5166 103.429C83.5166 102.334 83.5166 101.15 83.5166 99.878C83.5166 98.5707 83.5166 97.3693 83.5166 96.274H83.4636L80.9726 102.316L71.3266 125.53H66.5566ZM108.836 84.985C108.695 86.0097 108.553 87.2287 108.412 88.642C108.271 90.0553 108.129 91.4333 107.988 92.776C107.882 94.0833 107.794 95.0903 107.723 95.797C107.688 96.1857 107.617 96.8747 107.511 97.864C107.44 98.818 107.334 99.878 107.193 101.044C107.087 102.175 106.946 103.217 106.769 104.171H106.822C108.023 101.874 109.348 100.267 110.797 99.348C112.281 98.394 113.571 97.917 114.666 97.917C116.468 97.917 117.917 98.394 119.012 99.348C120.143 100.302 120.955 101.556 121.45 103.111C121.98 104.63 122.245 106.273 122.245 108.04C122.245 110.407 121.98 112.651 121.45 114.771C120.92 116.891 120.09 118.764 118.959 120.389C117.828 122.014 116.344 123.286 114.507 124.205C112.705 125.124 110.497 125.583 107.882 125.583C107.317 125.583 106.539 125.53 105.55 125.424C104.561 125.353 103.518 125.212 102.423 125C101.328 124.788 100.321 124.505 99.4021 124.152C99.5081 121.325 99.6141 118.764 99.7201 116.467C99.8261 114.135 99.9321 111.891 100.038 109.736C100.179 107.545 100.321 105.302 100.462 103.005C100.603 100.673 100.762 98.1113 100.939 95.32C100.974 94.7193 101.027 93.9597 101.098 93.041C101.169 92.087 101.257 91.2213 101.363 90.444C100.798 90.4793 100.144 90.5147 99.4021 90.55C98.6601 90.55 98.0948 90.5677 97.7061 90.603L97.9181 86.575C100.356 86.575 102.211 86.3983 103.483 86.045C104.755 85.6917 105.585 85.3383 105.974 84.985H108.836ZM112.546 102.793C111.698 102.793 110.885 103.305 110.108 104.33C109.331 105.319 108.642 106.697 108.041 108.464C107.476 110.195 107.016 112.192 106.663 114.453C106.31 116.714 106.098 119.099 106.027 121.608C106.31 121.749 106.716 121.873 107.246 121.979C107.811 122.05 108.271 122.085 108.624 122.085C109.79 122.085 110.744 121.767 111.486 121.131C112.263 120.46 112.882 119.594 113.341 118.534C113.836 117.439 114.189 116.255 114.401 114.983C114.648 113.676 114.807 112.404 114.878 111.167C114.949 109.895 114.984 108.764 114.984 107.775C114.984 105.867 114.719 104.56 114.189 103.853C113.694 103.146 113.147 102.793 112.546 102.793ZM135.267 125.583C133.006 125.583 131.38 124.841 130.391 123.357C129.402 121.873 128.907 119.894 128.907 117.421C128.907 116.114 129.013 114.683 129.225 113.128C129.472 111.573 129.702 110.019 129.914 108.464C130.161 106.909 130.285 105.496 130.285 104.224C130.285 103.623 130.179 103.252 129.967 103.111C129.79 102.934 129.614 102.846 129.437 102.846C129.048 102.846 128.642 103.146 128.218 103.747C127.794 104.348 127.352 105.443 126.893 107.033L124.031 106.185C124.172 105.443 124.437 104.595 124.826 103.641C125.25 102.687 125.798 101.786 126.469 100.938C127.14 100.055 127.935 99.3303 128.854 98.765C129.773 98.1997 130.833 97.917 132.034 97.917C134.013 97.917 135.338 98.447 136.009 99.507C136.716 100.567 137.069 102.033 137.069 103.906C137.069 104.966 136.998 106.167 136.857 107.51C136.716 108.817 136.557 110.16 136.38 111.538C136.203 112.916 136.044 114.223 135.903 115.46C135.762 116.661 135.691 117.668 135.691 118.481C135.691 119.965 136.186 120.707 137.175 120.707C137.776 120.707 138.394 120.318 139.03 119.541C139.701 118.764 140.337 117.721 140.938 116.414C141.539 115.071 142.086 113.605 142.581 112.015C143.076 110.39 143.464 108.747 143.747 107.086C144.065 105.39 144.224 103.8 144.224 102.316C144.224 101.821 144.206 101.168 144.171 100.355C144.171 99.5423 144.136 98.924 144.065 98.5H150.902C150.973 99.242 151.008 99.772 151.008 100.09C151.043 100.373 151.061 100.691 151.061 101.044C151.061 102.139 150.955 103.57 150.743 105.337C150.566 107.104 150.354 108.888 150.107 110.69C149.86 112.563 149.63 114.294 149.418 115.884C149.206 117.474 149.1 118.605 149.1 119.276C149.1 119.841 149.171 120.212 149.312 120.389C149.489 120.566 149.665 120.654 149.842 120.654C150.231 120.654 150.637 120.354 151.061 119.753C151.485 119.152 151.927 118.057 152.386 116.467L155.248 117.315C155.107 118.057 154.877 118.905 154.559 119.859C154.241 120.813 153.799 121.732 153.234 122.615C152.669 123.463 151.98 124.17 151.167 124.735C150.354 125.3 149.365 125.583 148.199 125.583C147.068 125.583 146.044 125.247 145.125 124.576C144.206 123.905 143.747 122.633 143.747 120.76C143.747 120.053 143.782 119.453 143.853 118.958C143.924 118.463 143.977 117.916 144.012 117.315H143.959C142.758 120.53 141.397 122.721 139.878 123.887C138.359 125.018 136.822 125.583 135.267 125.583ZM168.639 84.985C168.462 86.6457 168.285 88.2357 168.109 89.755C167.932 91.239 167.773 92.6523 167.632 93.995C167.137 98.235 166.731 101.821 166.413 104.754C166.095 107.651 165.83 110.036 165.618 111.909C165.441 113.782 165.3 115.283 165.194 116.414C165.123 117.509 165.088 118.41 165.088 119.117C165.088 119.753 165.158 120.177 165.3 120.389C165.476 120.566 165.653 120.654 165.83 120.654C166.254 120.654 166.678 120.354 167.102 119.753C167.526 119.152 167.967 118.057 168.427 116.467L171.289 117.315C171.006 118.481 170.547 119.718 169.911 121.025C169.275 122.297 168.409 123.375 167.314 124.258C166.218 125.141 164.823 125.583 163.127 125.583C161.855 125.583 160.742 125.194 159.788 124.417C158.834 123.64 158.357 122.332 158.357 120.495C158.357 118.34 158.463 115.884 158.675 113.128C158.922 110.372 159.205 107.475 159.523 104.436C159.876 101.397 160.229 98.3763 160.583 95.373C160.653 94.6663 160.742 93.8713 160.848 92.988C160.989 92.0693 161.13 91.2213 161.272 90.444C160.706 90.4793 160.035 90.5147 159.258 90.55C158.516 90.55 157.95 90.5677 157.562 90.603L157.774 86.575C160.212 86.575 162.049 86.3983 163.286 86.045C164.558 85.6917 165.388 85.3383 165.777 84.985H168.639ZM189.136 97.917C190.125 97.917 191.273 98.023 192.581 98.235C193.923 98.4117 195.319 98.6767 196.768 99.03C196.591 100.337 196.361 101.945 196.079 103.853C195.796 105.761 195.513 107.722 195.231 109.736C194.983 111.715 194.771 113.552 194.595 115.248C194.418 116.909 194.33 118.198 194.33 119.117C194.33 119.753 194.4 120.177 194.542 120.389C194.718 120.566 194.895 120.654 195.072 120.654C195.496 120.654 195.937 120.354 196.397 119.753C196.856 119.152 197.315 118.057 197.775 116.467L200.637 117.315C200.495 118.057 200.248 118.905 199.895 119.859C199.541 120.813 199.064 121.732 198.464 122.615C197.898 123.463 197.174 124.17 196.291 124.735C195.443 125.3 194.436 125.583 193.27 125.583C192.139 125.583 191.15 125.247 190.302 124.576C189.454 123.905 189.03 122.633 189.03 120.76C189.03 120.301 189.047 119.788 189.083 119.223C189.118 118.658 189.171 118.145 189.242 117.686H189.189C187.881 120.76 186.45 122.845 184.896 123.94C183.376 125.035 181.804 125.583 180.179 125.583C178.235 125.583 176.575 124.806 175.197 123.251C173.819 121.661 173.13 119.223 173.13 115.937C173.13 113.499 173.483 111.202 174.19 109.047C174.896 106.892 175.939 104.984 177.317 103.323C178.695 101.627 180.373 100.302 182.352 99.348C184.33 98.394 186.592 97.917 189.136 97.917ZM187.175 101.415C185.161 101.415 183.518 102.669 182.246 105.178C181.009 107.687 180.391 111.361 180.391 116.202C180.391 117.651 180.567 118.799 180.921 119.647C181.274 120.46 181.769 120.866 182.405 120.866C183.182 120.866 183.906 120.477 184.578 119.7C185.249 118.887 185.85 117.81 186.38 116.467C186.945 115.089 187.422 113.57 187.811 111.909C188.235 110.213 188.57 108.499 188.818 106.768C189.1 105.001 189.277 103.323 189.348 101.733C189.171 101.662 188.853 101.592 188.394 101.521C187.97 101.45 187.563 101.415 187.175 101.415ZM249.265 87.9L248.947 99.878H245.449C245.591 97.016 245.114 94.896 244.018 93.518C242.923 92.1047 241.368 91.4157 239.354 91.451H236.81L235.538 116.308C235.503 117.262 235.432 118.181 235.326 119.064C235.22 119.947 235.132 120.619 235.061 121.078C235.45 121.043 235.927 121.025 236.492 121.025C237.058 120.99 237.605 120.972 238.135 120.972C238.665 120.937 239.054 120.919 239.301 120.919L239.089 125H223.719L223.931 121.502C224.744 121.467 225.433 121.361 225.998 121.184C226.564 121.007 227.005 120.601 227.323 119.965C227.677 119.329 227.889 118.304 227.959 116.891L229.284 91.504H226.846C224.832 91.5393 223.189 92.2283 221.917 93.571C220.681 94.9137 219.992 97.016 219.85 99.878H216.352L217.253 87.9H249.265ZM261.745 97.917C264.077 97.917 265.985 98.447 267.469 99.507C268.953 100.567 269.695 102.263 269.695 104.595C269.695 106.044 269.254 107.28 268.37 108.305C267.522 109.294 266.392 110.107 264.978 110.743C263.6 111.379 262.081 111.909 260.42 112.333C258.76 112.722 257.152 113.022 255.597 113.234C255.597 115.248 255.827 116.803 256.286 117.898C256.781 118.958 257.399 119.7 258.141 120.124C258.883 120.513 259.625 120.707 260.367 120.707C260.968 120.707 261.675 120.601 262.487 120.389C263.335 120.142 264.183 119.647 265.031 118.905C265.879 118.163 266.621 117.068 267.257 115.619L270.225 117.05C269.236 119.347 268.123 121.113 266.886 122.35C265.65 123.587 264.36 124.435 263.017 124.894C261.675 125.353 260.314 125.583 258.936 125.583C255.686 125.618 253.106 124.682 251.198 122.774C249.29 120.866 248.336 117.951 248.336 114.029C248.336 112.333 248.601 110.549 249.131 108.676C249.661 106.803 250.456 105.054 251.516 103.429C252.612 101.804 254.007 100.479 255.703 99.454C257.399 98.4293 259.413 97.917 261.745 97.917ZM261.162 101.415C259.961 101.415 258.989 101.839 258.247 102.687C257.505 103.535 256.94 104.613 256.551 105.92C256.163 107.192 255.898 108.482 255.756 109.789C258.618 109.294 260.632 108.517 261.798 107.457C262.964 106.362 263.53 105.16 263.494 103.853C263.459 102.97 263.194 102.351 262.699 101.998C262.205 101.609 261.692 101.415 261.162 101.415ZM304.857 125.848C301.041 125.848 297.825 125.018 295.211 123.357C292.596 121.661 290.653 119.382 289.381 116.52C288.144 113.658 287.614 110.478 287.791 106.98C287.897 104.577 288.391 102.192 289.275 99.825C290.158 97.4577 291.412 95.32 293.038 93.412C294.698 91.4687 296.712 89.9317 299.08 88.801C301.447 87.635 304.168 87.052 307.242 87.052C308.16 87.052 309.22 87.158 310.422 87.37C311.623 87.5467 312.824 87.8293 314.026 88.218C315.227 88.6067 316.269 89.0837 317.153 89.649V87.423H321.234L320.598 99.772H317.1C316.782 96.8393 315.757 94.631 314.026 93.147C312.33 91.663 310.245 90.9033 307.772 90.868C305.934 90.868 304.291 91.292 302.843 92.14C301.429 92.988 300.228 94.1187 299.239 95.532C298.285 96.9453 297.525 98.553 296.96 100.355C296.43 102.157 296.112 104.012 296.006 105.92C295.864 108.959 296.147 111.662 296.854 114.029C297.596 116.396 298.762 118.269 300.352 119.647C301.977 120.99 303.991 121.661 306.394 121.661C307.065 121.661 307.878 121.608 308.832 121.502C309.786 121.396 310.722 121.237 311.641 121.025C312.595 120.813 313.407 120.548 314.079 120.23L314.344 115.301C314.414 114.347 314.485 113.428 314.556 112.545C314.626 111.662 314.697 110.99 314.768 110.531C314.202 110.566 313.496 110.602 312.648 110.637C311.8 110.637 311.181 110.655 310.793 110.69L311.005 106.609H324.944L324.785 110.107C324.007 110.142 323.336 110.266 322.771 110.478C322.241 110.69 321.834 111.114 321.552 111.75C321.269 112.386 321.092 113.375 321.022 114.718L320.598 123.198H319.273C318.354 123.198 317.418 123.322 316.464 123.569C315.545 123.781 314.573 124.046 313.549 124.364C312.347 124.717 311.04 125.053 309.627 125.371C308.213 125.689 306.623 125.848 304.857 125.848ZM336.967 125.583C334.706 125.583 333.081 124.841 332.091 123.357C331.102 121.873 330.607 119.894 330.607 117.421C330.607 116.114 330.713 114.683 330.925 113.128C331.173 111.573 331.402 110.019 331.614 108.464C331.862 106.909 331.985 105.496 331.985 104.224C331.985 103.623 331.879 103.252 331.667 103.111C331.491 102.934 331.314 102.846 331.137 102.846C330.749 102.846 330.342 103.146 329.918 103.747C329.494 104.348 329.053 105.443 328.593 107.033L325.731 106.185C325.873 105.443 326.138 104.595 326.526 103.641C326.95 102.687 327.498 101.786 328.169 100.938C328.841 100.055 329.636 99.3303 330.554 98.765C331.473 98.1997 332.533 97.917 333.734 97.917C335.713 97.917 337.038 98.447 337.709 99.507C338.416 100.567 338.769 102.033 338.769 103.906C338.769 104.966 338.699 106.167 338.557 107.51C338.416 108.817 338.257 110.16 338.08 111.538C337.904 112.916 337.745 114.223 337.603 115.46C337.462 116.661 337.391 117.668 337.391 118.481C337.391 119.965 337.886 120.707 338.875 120.707C339.476 120.707 340.094 120.318 340.73 119.541C341.402 118.764 342.038 117.721 342.638 116.414C343.239 115.071 343.787 113.605 344.281 112.015C344.776 110.39 345.165 108.747 345.447 107.086C345.765 105.39 345.924 103.8 345.924 102.316C345.924 101.821 345.907 101.168 345.871 100.355C345.871 99.5423 345.836 98.924 345.765 98.5H352.602C352.673 99.242 352.708 99.772 352.708 100.09C352.744 100.373 352.761 100.691 352.761 101.044C352.761 102.139 352.655 103.57 352.443 105.337C352.267 107.104 352.055 108.888 351.807 110.69C351.56 112.563 351.33 114.294 351.118 115.884C350.906 117.474 350.8 118.605 350.8 119.276C350.8 119.841 350.871 120.212 351.012 120.389C351.189 120.566 351.366 120.654 351.542 120.654C351.931 120.654 352.337 120.354 352.761 119.753C353.185 119.152 353.627 118.057 354.086 116.467L356.948 117.315C356.807 118.057 356.577 118.905 356.259 119.859C355.941 120.813 355.5 121.732 354.934 122.615C354.369 123.463 353.68 124.17 352.867 124.735C352.055 125.3 351.065 125.583 349.899 125.583C348.769 125.583 347.744 125.247 346.825 124.576C345.907 123.905 345.447 122.633 345.447 120.76C345.447 120.053 345.483 119.453 345.553 118.958C345.624 118.463 345.677 117.916 345.712 117.315H345.659C344.458 120.53 343.098 122.721 341.578 123.887C340.059 125.018 338.522 125.583 336.967 125.583ZM381.469 125.583C379.526 125.583 378.201 125.053 377.494 123.993C376.823 122.933 376.487 121.467 376.487 119.594C376.487 118.534 376.558 117.35 376.699 116.043C376.84 114.7 376.982 113.34 377.123 111.962C377.3 110.584 377.459 109.294 377.6 108.093C377.741 106.856 377.812 105.832 377.812 105.019C377.812 103.535 377.317 102.793 376.328 102.793C375.692 102.793 375.021 103.182 374.314 103.959C373.643 104.736 372.989 105.796 372.353 107.139C371.717 108.446 371.152 109.913 370.657 111.538C370.162 113.128 369.756 114.771 369.438 116.467C369.155 118.128 369.014 119.7 369.014 121.184C369.014 121.643 369.032 122.297 369.067 123.145C369.102 123.958 369.138 124.576 369.173 125H362.336C362.265 124.258 362.212 123.746 362.177 123.463C362.177 123.145 362.177 122.809 362.177 122.456C362.177 121.361 362.265 119.965 362.442 118.269C362.619 116.538 362.831 114.789 363.078 113.022C363.325 111.114 363.555 109.347 363.767 107.722C363.979 106.061 364.085 104.895 364.085 104.224C364.085 103.623 363.997 103.252 363.82 103.111C363.679 102.934 363.52 102.846 363.343 102.846C362.954 102.846 362.548 103.146 362.124 103.747C361.7 104.348 361.258 105.443 360.799 107.033L357.884 106.185C358.061 105.443 358.308 104.595 358.626 103.641C358.944 102.687 359.386 101.786 359.951 100.938C360.516 100.055 361.205 99.3303 362.018 98.765C362.831 98.1997 363.82 97.917 364.986 97.917C366.117 97.917 367.141 98.2527 368.06 98.924C368.979 99.5953 369.438 100.867 369.438 102.74C369.438 103.411 369.403 103.959 369.332 104.383C369.261 104.807 369.191 105.319 369.12 105.92H369.173C370.021 103.8 370.94 102.157 371.929 100.991C372.954 99.825 373.996 99.03 375.056 98.606C376.151 98.1467 377.211 97.917 378.236 97.917C380.497 97.917 382.123 98.659 383.112 100.143C384.101 101.592 384.596 103.57 384.596 106.079C384.596 107.351 384.49 108.764 384.278 110.319C384.066 111.874 383.836 113.428 383.589 114.983C383.377 116.538 383.271 117.969 383.271 119.276C383.271 119.841 383.359 120.212 383.536 120.389C383.713 120.566 383.889 120.654 384.066 120.654C384.455 120.654 384.861 120.354 385.285 119.753C385.709 119.152 386.151 118.057 386.61 116.467L389.472 117.315C389.331 118.057 389.048 118.905 388.624 119.859C388.235 120.813 387.705 121.732 387.034 122.615C386.363 123.463 385.568 124.17 384.649 124.735C383.73 125.3 382.67 125.583 381.469 125.583ZM400.992 125.583C398.73 125.583 397.105 124.841 396.116 123.357C395.126 121.873 394.632 119.894 394.632 117.421C394.632 116.114 394.738 114.683 394.95 113.128C395.197 111.573 395.427 110.019 395.639 108.464C395.886 106.909 396.01 105.496 396.01 104.224C396.01 103.623 395.904 103.252 395.692 103.111C395.515 102.934 395.338 102.846 395.162 102.846C394.773 102.846 394.367 103.146 393.943 103.747C393.519 104.348 393.077 105.443 392.618 107.033L389.756 106.185C389.897 105.443 390.162 104.595 390.551 103.641C390.975 102.687 391.522 101.786 392.194 100.938C392.865 100.055 393.66 99.3303 394.579 98.765C395.497 98.1997 396.557 97.917 397.759 97.917C399.737 97.917 401.062 98.447 401.734 99.507C402.44 100.567 402.794 102.033 402.794 103.906C402.794 104.966 402.723 106.167 402.582 107.51C402.44 108.817 402.281 110.16 402.105 111.538C401.928 112.916 401.769 114.223 401.628 115.46C401.486 116.661 401.416 117.668 401.416 118.481C401.416 119.965 401.91 120.707 402.9 120.707C403.5 120.707 404.119 120.318 404.755 119.541C405.426 118.764 406.062 117.721 406.663 116.414C407.263 115.071 407.811 113.605 408.306 112.015C408.8 110.39 409.189 108.747 409.472 107.086C409.79 105.39 409.949 103.8 409.949 102.316C409.949 101.821 409.931 101.168 409.896 100.355C409.896 99.5423 409.86 98.924 409.79 98.5H416.627C416.697 99.242 416.733 99.772 416.733 100.09C416.768 100.373 416.786 100.691 416.786 101.044C416.786 102.139 416.68 103.57 416.468 105.337C416.291 107.104 416.079 108.888 415.832 110.69C415.584 112.563 415.355 114.294 415.143 115.884C414.931 117.474 414.825 118.605 414.825 119.276C414.825 119.841 414.895 120.212 415.037 120.389C415.213 120.566 415.39 120.654 415.567 120.654C415.955 120.654 416.362 120.354 416.786 119.753C417.21 119.152 417.651 118.057 418.111 116.467L420.973 117.315C420.831 118.057 420.602 118.905 420.284 119.859C419.966 120.813 419.524 121.732 418.959 122.615C418.393 123.463 417.704 124.17 416.892 124.735C416.079 125.3 415.09 125.583 413.924 125.583C412.793 125.583 411.768 125.247 410.85 124.576C409.931 123.905 409.472 122.633 409.472 120.76C409.472 120.053 409.507 119.453 409.578 118.958C409.648 118.463 409.701 117.916 409.737 117.315H409.684C408.482 120.53 407.122 122.721 405.603 123.887C404.083 125.018 402.546 125.583 400.992 125.583ZM55.1198 156.9L54.9608 160.398C54.1835 160.433 53.4945 160.539 52.8938 160.716C52.3285 160.893 51.8691 161.299 51.5158 161.935C51.1978 162.536 51.0035 163.56 50.9328 165.009L50.1378 180.538C49.8551 185.626 48.7245 189.283 46.7458 191.509C44.7671 193.735 41.9935 194.848 38.4248 194.848C37.0468 194.848 35.7925 194.601 34.6618 194.106C33.5665 193.611 32.7008 192.94 32.0648 192.092C31.4288 191.244 31.1461 190.272 31.2168 189.177C31.2875 188.046 31.6408 187.039 32.2768 186.156C32.9481 185.273 33.8845 184.813 35.0858 184.778C36.4285 184.707 37.3648 185.043 37.8948 185.785C38.4248 186.492 38.6898 187.304 38.6898 188.223C38.6898 188.824 38.5131 189.477 38.1598 190.184C38.3011 190.537 38.5485 190.767 38.9018 190.873C39.2551 190.979 39.5201 191.032 39.6968 191.032C40.4741 191.032 41.0748 190.714 41.4988 190.078C41.9228 189.407 42.1701 188.329 42.2408 186.845L43.3538 165.592C43.4245 164.638 43.4951 163.719 43.5658 162.836C43.6718 161.953 43.7601 161.281 43.8308 160.822C43.4775 160.822 43.0005 160.84 42.3998 160.875C41.8345 160.875 41.2868 160.893 40.7568 160.928C40.2268 160.928 39.8381 160.946 39.5908 160.981L39.8028 156.9H55.1198ZM71.3349 166.917C72.3242 166.917 73.4726 167.023 74.7799 167.235C76.1226 167.412 77.5182 167.677 78.9669 168.03C78.7902 169.337 78.5606 170.945 78.2779 172.853C77.9952 174.761 77.7126 176.722 77.4299 178.736C77.1826 180.715 76.9706 182.552 76.7939 184.248C76.6172 185.909 76.5289 187.198 76.5289 188.117C76.5289 188.753 76.5996 189.177 76.7409 189.389C76.9176 189.566 77.0942 189.654 77.2709 189.654C77.6949 189.654 78.1366 189.354 78.5959 188.753C79.0552 188.152 79.5146 187.057 79.9739 185.467L82.8359 186.315C82.6946 187.057 82.4472 187.905 82.0939 188.859C81.7406 189.813 81.2636 190.732 80.6629 191.615C80.0976 192.463 79.3732 193.17 78.4899 193.735C77.6419 194.3 76.6349 194.583 75.4689 194.583C74.3382 194.583 73.3489 194.247 72.5009 193.576C71.6529 192.905 71.2289 191.633 71.2289 189.76C71.2289 189.301 71.2466 188.788 71.2819 188.223C71.3172 187.658 71.3702 187.145 71.4409 186.686H71.3879C70.0806 189.76 68.6496 191.845 67.0949 192.94C65.5756 194.035 64.0032 194.583 62.3779 194.583C60.4346 194.583 58.7739 193.806 57.3959 192.251C56.0179 190.661 55.3289 188.223 55.3289 184.937C55.3289 182.499 55.6822 180.202 56.3889 178.047C57.0956 175.892 58.1379 173.984 59.5159 172.323C60.8939 170.627 62.5722 169.302 64.5509 168.348C66.5296 167.394 68.7909 166.917 71.3349 166.917ZM69.3739 170.415C67.3599 170.415 65.7169 171.669 64.4449 174.178C63.2082 176.687 62.5899 180.361 62.5899 185.202C62.5899 186.651 62.7666 187.799 63.1199 188.647C63.4732 189.46 63.9679 189.866 64.6039 189.866C65.3812 189.866 66.1056 189.477 66.7769 188.7C67.4482 187.887 68.0489 186.81 68.5789 185.467C69.1442 184.089 69.6212 182.57 70.0099 180.909C70.4339 179.213 70.7696 177.499 71.0169 175.768C71.2996 174.001 71.4762 172.323 71.5469 170.733C71.3702 170.662 71.0522 170.592 70.5929 170.521C70.1689 170.45 69.7626 170.415 69.3739 170.415ZM87.9678 194C87.8971 193.258 87.8441 192.746 87.8088 192.463C87.8088 192.145 87.8088 191.809 87.8088 191.456C87.8088 190.325 87.8971 188.894 88.0738 187.163C88.2858 185.396 88.4978 183.63 88.7098 181.863C88.9925 179.99 89.2221 178.259 89.3988 176.669C89.6108 175.044 89.7168 173.895 89.7168 173.224C89.7168 172.623 89.6285 172.252 89.4518 172.111C89.3105 171.934 89.1515 171.846 88.9748 171.846C88.5861 171.846 88.1798 172.146 87.7558 172.747C87.3318 173.348 86.8901 174.443 86.4308 176.033L83.5158 175.185C83.6925 174.443 83.9398 173.595 84.2578 172.641C84.5758 171.687 85.0175 170.786 85.5828 169.938C86.1481 169.055 86.8371 168.33 87.6498 167.765C88.4625 167.2 89.4518 166.917 90.6178 166.917C91.7485 166.917 92.7731 167.253 93.6918 167.924C94.6105 168.595 95.0698 169.867 95.0698 171.74C95.0698 172.305 95.0168 172.977 94.9108 173.754C94.8401 174.531 94.7165 175.432 94.5398 176.457H94.5928C95.5468 173.772 96.5185 171.758 97.5078 170.415C98.5325 169.037 99.5395 168.118 100.529 167.659C101.518 167.164 102.437 166.917 103.285 166.917C104.627 166.917 105.705 167.288 106.518 168.03C107.33 168.737 107.737 169.708 107.737 170.945C107.737 171.864 107.401 172.694 106.73 173.436C106.094 174.178 105.246 174.549 104.186 174.549C103.408 174.549 102.719 174.302 102.119 173.807C101.518 173.312 101.235 172.641 101.271 171.793C100.67 171.722 100.052 172.076 99.4158 172.853C98.8151 173.595 98.2321 174.637 97.6668 175.98C97.1368 177.287 96.6421 178.754 96.1828 180.379C95.7588 182.004 95.4055 183.665 95.1228 185.361C94.8755 187.057 94.7518 188.665 94.7518 190.184C94.7518 190.643 94.7695 191.297 94.8048 192.145C94.8401 192.958 94.8755 193.576 94.9108 194H87.9678ZM117.541 153.561C118.707 153.561 119.643 153.985 120.35 154.833C121.092 155.681 121.428 156.723 121.357 157.96C121.322 159.161 120.915 160.186 120.138 161.034C119.361 161.847 118.389 162.253 117.223 162.253C116.022 162.253 115.05 161.847 114.308 161.034C113.601 160.186 113.266 159.161 113.301 157.96C113.372 156.723 113.831 155.681 114.679 154.833C115.527 153.985 116.481 153.561 117.541 153.561ZM115.686 166.917C117.523 166.917 118.795 167.482 119.502 168.613C120.244 169.708 120.615 171.192 120.615 173.065C120.615 173.913 120.527 175.061 120.35 176.51C120.173 177.959 119.979 179.478 119.767 181.068C119.555 182.658 119.361 184.107 119.184 185.414C119.007 186.721 118.919 187.675 118.919 188.276C118.919 188.841 119.007 189.212 119.184 189.389C119.361 189.566 119.537 189.654 119.714 189.654C120.138 189.654 120.562 189.354 120.986 188.753C121.41 188.152 121.852 187.057 122.311 185.467L125.173 186.315C125.032 187.057 124.749 187.905 124.325 188.859C123.936 189.813 123.406 190.732 122.735 191.615C122.064 192.463 121.251 193.17 120.297 193.735C119.378 194.3 118.318 194.583 117.117 194.583C115.174 194.583 113.831 194.053 113.089 192.993C112.382 191.933 112.029 190.467 112.029 188.594C112.029 187.569 112.117 186.35 112.294 184.937C112.471 183.524 112.665 182.075 112.877 180.591C113.124 179.107 113.336 177.729 113.513 176.457C113.69 175.15 113.778 174.072 113.778 173.224C113.778 172.623 113.69 172.252 113.513 172.111C113.336 171.934 113.142 171.846 112.93 171.846C112.541 171.846 112.135 172.146 111.711 172.747C111.287 173.348 110.845 174.443 110.386 176.033L107.524 175.185C107.665 174.443 107.948 173.595 108.372 172.641C108.796 171.687 109.344 170.786 110.015 169.938C110.722 169.055 111.534 168.33 112.453 167.765C113.407 167.2 114.485 166.917 115.686 166.917ZM174.01 156.9L173.692 168.878H170.194C170.335 166.016 169.858 163.896 168.763 162.518C167.667 161.105 166.113 160.416 164.099 160.451H161.555L160.283 185.308C160.247 186.262 160.177 187.181 160.071 188.064C159.965 188.947 159.876 189.619 159.806 190.078C160.194 190.043 160.671 190.025 161.237 190.025C161.802 189.99 162.35 189.972 162.88 189.972C163.41 189.937 163.798 189.919 164.046 189.919L163.834 194H148.464L148.676 190.502C149.488 190.467 150.177 190.361 150.743 190.184C151.308 190.007 151.75 189.601 152.068 188.965C152.421 188.329 152.633 187.304 152.704 185.891L154.029 160.504H151.591C149.577 160.539 147.934 161.228 146.662 162.571C145.425 163.914 144.736 166.016 144.595 168.878H141.097L141.998 156.9H174.01ZM188.101 166.917C189.09 166.917 190.238 167.023 191.546 167.235C192.888 167.412 194.284 167.677 195.733 168.03C195.556 169.337 195.326 170.945 195.044 172.853C194.761 174.761 194.478 176.722 194.196 178.736C193.948 180.715 193.736 182.552 193.56 184.248C193.383 185.909 193.295 187.198 193.295 188.117C193.295 188.753 193.365 189.177 193.507 189.389C193.683 189.566 193.86 189.654 194.037 189.654C194.461 189.654 194.902 189.354 195.362 188.753C195.821 188.152 196.28 187.057 196.74 185.467L199.602 186.315C199.46 187.057 199.213 187.905 198.86 188.859C198.506 189.813 198.029 190.732 197.429 191.615C196.863 192.463 196.139 193.17 195.256 193.735C194.408 194.3 193.401 194.583 192.235 194.583C191.104 194.583 190.115 194.247 189.267 193.576C188.419 192.905 187.995 191.633 187.995 189.76C187.995 189.301 188.012 188.788 188.048 188.223C188.083 187.658 188.136 187.145 188.207 186.686H188.154C186.846 189.76 185.415 191.845 183.861 192.94C182.341 194.035 180.769 194.583 179.144 194.583C177.2 194.583 175.54 193.806 174.162 192.251C172.784 190.661 172.095 188.223 172.095 184.937C172.095 182.499 172.448 180.202 173.155 178.047C173.861 175.892 174.904 173.984 176.282 172.323C177.66 170.627 179.338 169.302 181.317 168.348C183.295 167.394 185.557 166.917 188.101 166.917ZM186.14 170.415C184.126 170.415 182.483 171.669 181.211 174.178C179.974 176.687 179.356 180.361 179.356 185.202C179.356 186.651 179.532 187.799 179.886 188.647C180.239 189.46 180.734 189.866 181.37 189.866C182.147 189.866 182.871 189.477 183.543 188.7C184.214 187.887 184.815 186.81 185.345 185.467C185.91 184.089 186.387 182.57 186.776 180.909C187.2 179.213 187.535 177.499 187.783 175.768C188.065 174.001 188.242 172.323 188.313 170.733C188.136 170.662 187.818 170.592 187.359 170.521C186.935 170.45 186.528 170.415 186.14 170.415ZM234.821 194.53L228.355 177.093C228.108 176.422 227.79 175.468 227.401 174.231C227.013 172.959 226.624 171.563 226.235 170.044C225.847 168.525 225.511 167.058 225.228 165.645H225.175C225.14 167.447 225.087 169.178 225.016 170.839C224.981 172.5 224.91 174.125 224.804 175.715L224.221 185.308C224.186 186.262 224.115 187.181 224.009 188.064C223.903 188.947 223.815 189.619 223.744 190.078C224.345 190.007 225.069 189.972 225.917 189.972C226.801 189.937 227.419 189.919 227.772 189.919L227.56 194H215.476L215.688 190.502C216.501 190.467 217.172 190.361 217.702 190.184C218.268 190.007 218.709 189.601 219.027 188.965C219.345 188.329 219.557 187.304 219.663 185.891L221.041 165.592C221.112 164.638 221.183 163.719 221.253 162.836C221.359 161.953 221.448 161.281 221.518 160.822C220.953 160.857 220.229 160.893 219.345 160.928C218.497 160.928 217.879 160.946 217.49 160.981L217.755 156.9H229.097L236.358 177.464C236.959 179.089 237.436 180.609 237.789 182.022C238.178 183.435 238.549 184.778 238.902 186.05H238.955C239.45 184.813 239.945 183.577 240.439 182.34C240.934 181.103 241.411 179.92 241.87 178.789C243.425 175.114 244.962 171.457 246.481 167.818C248.001 164.179 249.52 160.539 251.039 156.9H263.388L263.176 160.398C262.399 160.433 261.71 160.539 261.109 160.716C260.509 160.893 260.032 161.299 259.678 161.935C259.36 162.536 259.184 163.56 259.148 165.009L258.883 185.308C258.883 186.262 258.83 187.181 258.724 188.064C258.618 188.947 258.512 189.619 258.406 190.078C259.007 190.007 259.731 189.972 260.579 189.972C261.463 189.937 262.081 189.919 262.434 189.919L262.222 194H247.382L247.594 190.502C248.407 190.467 249.096 190.361 249.661 190.184C250.262 190.007 250.721 189.601 251.039 188.965C251.393 188.329 251.569 187.304 251.569 185.891L251.728 174.655C251.764 174.231 251.781 173.489 251.781 172.429C251.781 171.334 251.781 170.15 251.781 168.878C251.781 167.571 251.781 166.369 251.781 165.274H251.728L249.237 171.316L239.591 194.53H234.821ZM281.834 166.917C282.823 166.917 283.972 167.023 285.279 167.235C286.622 167.412 288.017 167.677 289.466 168.03C289.289 169.337 289.06 170.945 288.777 172.853C288.494 174.761 288.212 176.722 287.929 178.736C287.682 180.715 287.47 182.552 287.293 184.248C287.116 185.909 287.028 187.198 287.028 188.117C287.028 188.753 287.099 189.177 287.24 189.389C287.417 189.566 287.593 189.654 287.77 189.654C288.194 189.654 288.636 189.354 289.095 188.753C289.554 188.152 290.014 187.057 290.473 185.467L293.335 186.315C293.194 187.057 292.946 187.905 292.593 188.859C292.24 189.813 291.763 190.732 291.162 191.615C290.597 192.463 289.872 193.17 288.989 193.735C288.141 194.3 287.134 194.583 285.968 194.583C284.837 194.583 283.848 194.247 283 193.576C282.152 192.905 281.728 191.633 281.728 189.76C281.728 189.301 281.746 188.788 281.781 188.223C281.816 187.658 281.869 187.145 281.94 186.686H281.887C280.58 189.76 279.149 191.845 277.594 192.94C276.075 194.035 274.502 194.583 272.877 194.583C270.934 194.583 269.273 193.806 267.895 192.251C266.517 190.661 265.828 188.223 265.828 184.937C265.828 182.499 266.181 180.202 266.888 178.047C267.595 175.892 268.637 173.984 270.015 172.323C271.393 170.627 273.071 169.302 275.05 168.348C277.029 167.394 279.29 166.917 281.834 166.917ZM279.873 170.415C277.859 170.415 276.216 171.669 274.944 174.178C273.707 176.687 273.089 180.361 273.089 185.202C273.089 186.651 273.266 187.799 273.619 188.647C273.972 189.46 274.467 189.866 275.103 189.866C275.88 189.866 276.605 189.477 277.276 188.7C277.947 187.887 278.548 186.81 279.078 185.467C279.643 184.089 280.12 182.57 280.509 180.909C280.933 179.213 281.269 177.499 281.516 175.768C281.799 174.001 281.975 172.323 282.046 170.733C281.869 170.662 281.551 170.592 281.092 170.521C280.668 170.45 280.262 170.415 279.873 170.415ZM298.467 194C298.396 193.258 298.343 192.746 298.308 192.463C298.308 192.145 298.308 191.809 298.308 191.456C298.308 190.325 298.396 188.894 298.573 187.163C298.785 185.396 298.997 183.63 299.209 181.863C299.491 179.99 299.721 178.259 299.898 176.669C300.11 175.044 300.216 173.895 300.216 173.224C300.216 172.623 300.127 172.252 299.951 172.111C299.809 171.934 299.65 171.846 299.474 171.846C299.085 171.846 298.679 172.146 298.255 172.747C297.831 173.348 297.389 174.443 296.93 176.033L294.015 175.185C294.191 174.443 294.439 173.595 294.757 172.641C295.075 171.687 295.516 170.786 296.082 169.938C296.647 169.055 297.336 168.33 298.149 167.765C298.961 167.2 299.951 166.917 301.117 166.917C302.247 166.917 303.272 167.253 304.191 167.924C305.109 168.595 305.569 169.867 305.569 171.74C305.569 172.305 305.516 172.977 305.41 173.754C305.339 174.531 305.215 175.432 305.039 176.457H305.092C306.046 173.772 307.017 171.758 308.007 170.415C309.031 169.037 310.038 168.118 311.028 167.659C312.017 167.164 312.936 166.917 313.784 166.917C315.126 166.917 316.204 167.288 317.017 168.03C317.829 168.737 318.236 169.708 318.236 170.945C318.236 171.864 317.9 172.694 317.229 173.436C316.593 174.178 315.745 174.549 314.685 174.549C313.907 174.549 313.218 174.302 312.618 173.807C312.017 173.312 311.734 172.641 311.77 171.793C311.169 171.722 310.551 172.076 309.915 172.853C309.314 173.595 308.731 174.637 308.166 175.98C307.636 177.287 307.141 178.754 306.682 180.379C306.258 182.004 305.904 183.665 305.622 185.361C305.374 187.057 305.251 188.665 305.251 190.184C305.251 190.643 305.268 191.297 305.304 192.145C305.339 192.958 305.374 193.576 305.41 194H298.467ZM334.627 166.917C335.616 166.917 336.765 167.023 338.072 167.235C339.415 167.412 340.81 167.677 342.259 168.03C342.082 169.337 341.853 170.945 341.57 172.853C341.287 174.761 341.005 176.722 340.722 178.736C340.475 180.715 340.263 182.552 340.086 184.248C339.909 185.909 339.821 187.198 339.821 188.117C339.821 188.753 339.892 189.177 340.033 189.389C340.21 189.566 340.386 189.654 340.563 189.654C340.987 189.654 341.429 189.354 341.888 188.753C342.347 188.152 342.807 187.057 343.266 185.467L346.128 186.315C345.987 187.057 345.739 187.905 345.386 188.859C345.033 189.813 344.556 190.732 343.955 191.615C343.39 192.463 342.665 193.17 341.782 193.735C340.934 194.3 339.927 194.583 338.761 194.583C337.63 194.583 336.641 194.247 335.793 193.576C334.945 192.905 334.521 191.633 334.521 189.76C334.521 189.301 334.539 188.788 334.574 188.223C334.609 187.658 334.662 187.145 334.733 186.686H334.68C333.373 189.76 331.942 191.845 330.387 192.94C328.868 194.035 327.295 194.583 325.67 194.583C323.727 194.583 322.066 193.806 320.688 192.251C319.31 190.661 318.621 188.223 318.621 184.937C318.621 182.499 318.974 180.202 319.681 178.047C320.388 175.892 321.43 173.984 322.808 172.323C324.186 170.627 325.864 169.302 327.843 168.348C329.822 167.394 332.083 166.917 334.627 166.917ZM332.666 170.415C330.652 170.415 329.009 171.669 327.737 174.178C326.5 176.687 325.882 180.361 325.882 185.202C325.882 186.651 326.059 187.799 326.412 188.647C326.765 189.46 327.26 189.866 327.896 189.866C328.673 189.866 329.398 189.477 330.069 188.7C330.74 187.887 331.341 186.81 331.871 185.467C332.436 184.089 332.913 182.57 333.302 180.909C333.726 179.213 334.062 177.499 334.309 175.768C334.592 174.001 334.768 172.323 334.839 170.733C334.662 170.662 334.344 170.592 333.885 170.521C333.461 170.45 333.055 170.415 332.666 170.415ZM359.793 159.497L358.733 167.5H365.358L365.04 171.157L358.415 171.263C358.273 172.535 358.114 173.913 357.938 175.397C357.761 176.846 357.602 178.277 357.461 179.69C357.355 181.068 357.249 182.322 357.143 183.453C357.072 184.548 357.037 185.396 357.037 185.997C357.037 186.456 357.09 186.969 357.196 187.534C357.302 188.064 357.531 188.523 357.885 188.912C358.238 189.301 358.803 189.495 359.581 189.495C359.863 189.495 360.27 189.424 360.8 189.283C361.365 189.106 361.966 188.788 362.602 188.329C363.238 187.87 363.821 187.145 364.351 186.156L367.054 187.852C365.852 190.113 364.386 191.809 362.655 192.94C360.923 194.035 359.068 194.583 357.09 194.583C355.146 194.583 353.68 194.177 352.691 193.364C351.737 192.551 351.101 191.491 350.783 190.184C350.465 188.841 350.323 187.446 350.359 185.997C350.429 184.796 350.518 183.382 350.624 181.757C350.73 180.096 350.871 178.365 351.048 176.563C351.224 174.726 351.401 172.977 351.578 171.316L347.338 171.369L347.815 167.5C350.429 167.5 352.355 166.811 353.592 165.433C354.864 164.055 355.747 162.076 356.242 159.497H359.793ZM384.625 166.917C385.614 166.917 386.763 167.023 388.07 167.235C389.413 167.412 390.808 167.677 392.257 168.03C392.08 169.337 391.851 170.945 391.568 172.853C391.285 174.761 391.003 176.722 390.72 178.736C390.473 180.715 390.261 182.552 390.084 184.248C389.907 185.909 389.819 187.198 389.819 188.117C389.819 188.753 389.89 189.177 390.031 189.389C390.208 189.566 390.384 189.654 390.561 189.654C390.985 189.654 391.427 189.354 391.886 188.753C392.345 188.152 392.805 187.057 393.264 185.467L396.126 186.315C395.985 187.057 395.737 187.905 395.384 188.859C395.031 189.813 394.554 190.732 393.953 191.615C393.388 192.463 392.663 193.17 391.78 193.735C390.932 194.3 389.925 194.583 388.759 194.583C387.628 194.583 386.639 194.247 385.791 193.576C384.943 192.905 384.519 191.633 384.519 189.76C384.519 189.301 384.537 188.788 384.572 188.223C384.607 187.658 384.66 187.145 384.731 186.686H384.678C383.371 189.76 381.94 191.845 380.385 192.94C378.866 194.035 377.293 194.583 375.668 194.583C373.725 194.583 372.064 193.806 370.686 192.251C369.308 190.661 368.619 188.223 368.619 184.937C368.619 182.499 368.972 180.202 369.679 178.047C370.386 175.892 371.428 173.984 372.806 172.323C374.184 170.627 375.862 169.302 377.841 168.348C379.82 167.394 382.081 166.917 384.625 166.917ZM382.664 170.415C380.65 170.415 379.007 171.669 377.735 174.178C376.498 176.687 375.88 180.361 375.88 185.202C375.88 186.651 376.057 187.799 376.41 188.647C376.763 189.46 377.258 189.866 377.894 189.866C378.671 189.866 379.396 189.477 380.067 188.7C380.738 187.887 381.339 186.81 381.869 185.467C382.434 184.089 382.911 182.57 383.3 180.909C383.724 179.213 384.06 177.499 384.307 175.768C384.59 174.001 384.766 172.323 384.837 170.733C384.66 170.662 384.342 170.592 383.883 170.521C383.459 170.45 383.053 170.415 382.664 170.415ZM425.145 166.917C427.477 166.917 429.385 167.447 430.869 168.507C432.353 169.567 433.095 171.263 433.095 173.595C433.095 175.044 432.653 176.28 431.77 177.305C430.922 178.294 429.791 179.107 428.378 179.743C427 180.379 425.48 180.909 423.82 181.333C422.159 181.722 420.551 182.022 418.997 182.234C418.997 184.248 419.226 185.803 419.686 186.898C420.18 187.958 420.799 188.7 421.541 189.124C422.283 189.513 423.025 189.707 423.767 189.707C424.367 189.707 425.074 189.601 425.887 189.389C426.735 189.142 427.583 188.647 428.431 187.905C429.279 187.163 430.021 186.068 430.657 184.619L433.625 186.05C432.635 188.347 431.522 190.113 430.286 191.35C429.049 192.587 427.759 193.435 426.417 193.894C425.074 194.353 423.714 194.583 422.336 194.583C419.085 194.618 416.506 193.682 414.598 191.774C412.69 189.866 411.736 186.951 411.736 183.029C411.736 181.333 412.001 179.549 412.531 177.676C413.061 175.803 413.856 174.054 414.916 172.429C416.011 170.804 417.407 169.479 419.103 168.454C420.799 167.429 422.813 166.917 425.145 166.917ZM424.562 170.415C423.36 170.415 422.389 170.839 421.647 171.687C420.905 172.535 420.339 173.613 419.951 174.92C419.562 176.192 419.297 177.482 419.156 178.789C422.018 178.294 424.032 177.517 425.198 176.457C426.364 175.362 426.929 174.16 426.894 172.853C426.858 171.97 426.593 171.351 426.099 170.998C425.604 170.609 425.092 170.415 424.562 170.415Z" fill="white"/>
<path d="M236.476 18.794C239.585 18.7587 242.253 19.165 244.479 20.013C246.74 20.861 248.436 22.1683 249.567 23.935C250.733 25.7017 251.192 27.9983 250.945 30.825C250.804 32.6977 250.132 34.5173 248.931 36.284C247.765 38.0507 246.051 39.517 243.79 40.683C241.564 41.849 238.773 42.485 235.416 42.591C233.967 42.6263 232.695 42.6263 231.6 42.591L231.335 47.255C231.3 48.2443 231.229 49.1807 231.123 50.064C231.052 50.9473 230.982 51.6187 230.911 52.078C231.3 52.0427 231.794 52.025 232.395 52.025C232.996 51.9897 233.579 51.972 234.144 51.972C234.709 51.9367 235.116 51.919 235.363 51.919L235.204 56H219.569L219.781 52.502C220.558 52.4667 221.23 52.3607 221.795 52.184C222.36 52.0073 222.802 51.601 223.12 50.965C223.473 50.329 223.685 49.3043 223.756 47.891L224.816 27.592C224.887 26.638 224.957 25.7193 225.028 24.836C225.134 23.9527 225.222 23.2813 225.293 22.822C224.728 22.8573 224.021 22.8927 223.173 22.928C222.325 22.928 221.707 22.9457 221.318 22.981L221.53 18.9C224.039 18.8647 226.53 18.847 229.003 18.847C231.512 18.847 234.003 18.8293 236.476 18.794ZM236.211 22.504C235.116 22.504 234.232 22.7337 233.561 23.193C232.89 23.6523 232.501 24.8183 232.395 26.691L231.812 38.616C232.554 38.722 233.349 38.775 234.197 38.775C237.13 38.775 239.285 38.0507 240.663 36.602C242.041 35.118 242.801 33.0333 242.942 30.348C243.013 28.5813 242.836 27.168 242.412 26.108C241.988 25.048 241.405 24.2707 240.663 23.776C239.956 23.246 239.197 22.9103 238.384 22.769C237.607 22.5923 236.882 22.504 236.211 22.504ZM265.315 28.917C267.294 28.917 269.078 29.3763 270.668 30.295C272.294 31.2137 273.583 32.5563 274.537 34.323C275.491 36.0897 275.968 38.2273 275.968 40.736C275.968 43.5273 275.421 46.142 274.325 48.58C273.265 50.9827 271.746 52.926 269.767 54.41C267.789 55.8587 265.421 56.583 262.665 56.583C260.298 56.583 258.319 56.053 256.729 54.993C255.139 53.8977 253.956 52.4313 253.178 50.594C252.401 48.7567 252.012 46.7427 252.012 44.552C252.012 41.7253 252.542 39.1283 253.602 36.761C254.698 34.3937 256.235 32.5033 258.213 31.09C260.227 29.6413 262.595 28.917 265.315 28.917ZM264.52 32.415C263.46 32.3797 262.524 32.8567 261.711 33.846C260.934 34.8 260.316 36.0897 259.856 37.715C259.432 39.3403 259.22 41.1247 259.22 43.068C259.22 44.128 259.273 45.241 259.379 46.407C259.521 47.573 259.75 48.6683 260.068 49.693C260.422 50.6823 260.863 51.495 261.393 52.131C261.959 52.767 262.665 53.085 263.513 53.085C264.432 53.085 265.209 52.7317 265.845 52.025C266.481 51.3183 266.994 50.4173 267.382 49.322C267.806 48.1913 268.107 47.0077 268.283 45.771C268.495 44.5343 268.619 43.3683 268.654 42.273C268.69 41.319 268.654 40.2767 268.548 39.146C268.442 38.0153 268.248 36.9377 267.965 35.913C267.683 34.8883 267.259 34.058 266.693 33.422C266.128 32.7507 265.404 32.415 264.52 32.415ZM288.405 56.583C286.709 56.583 285.136 56.3357 283.688 55.841C282.274 55.3463 281.126 54.6397 280.243 53.721C279.359 52.767 278.918 51.6717 278.918 50.435C278.918 49.3397 279.236 48.4563 279.872 47.785C280.543 47.0783 281.356 46.725 282.31 46.725C283.264 46.725 284.041 47.043 284.642 47.679C285.242 48.315 285.543 49.0923 285.543 50.011C285.543 50.541 285.437 51.071 285.225 51.601C285.401 51.9543 285.861 52.29 286.603 52.608C287.38 52.926 288.034 53.085 288.564 53.085C290.118 53.085 291.196 52.7493 291.797 52.078C292.433 51.4067 292.751 50.647 292.751 49.799C292.751 48.8097 292.203 47.9617 291.108 47.255C290.012 46.513 288.776 45.7533 287.398 44.976C285.737 44.022 284.359 43.1387 283.264 42.326C282.168 41.5133 281.356 40.6653 280.826 39.782C280.331 38.8633 280.084 37.7857 280.084 36.549C280.084 35.3123 280.472 34.111 281.25 32.945C282.027 31.779 283.158 30.825 284.642 30.083C286.161 29.3057 287.998 28.917 290.154 28.917C291.567 28.917 292.945 29.1467 294.288 29.606C295.666 30.0653 296.796 30.7367 297.68 31.62C298.598 32.468 299.058 33.5103 299.058 34.747C299.058 35.6657 298.757 36.4783 298.157 37.185C297.556 37.8917 296.743 38.245 295.719 38.245C294.765 38.245 293.987 37.927 293.387 37.291C292.821 36.6197 292.539 35.86 292.539 35.012C292.539 34.4467 292.645 33.9343 292.857 33.475C292.574 33.0863 292.132 32.8213 291.532 32.68C290.966 32.5033 290.436 32.415 289.942 32.415C289.2 32.415 288.422 32.6623 287.61 33.157C286.797 33.6163 286.391 34.2877 286.391 35.171C286.391 35.6657 286.497 36.1073 286.709 36.496C286.956 36.8493 287.433 37.2733 288.14 37.768C288.846 38.2273 289.906 38.881 291.32 39.729C292.486 40.4003 293.669 41.1247 294.871 41.902C296.107 42.6793 297.132 43.598 297.945 44.658C298.793 45.6827 299.217 46.937 299.217 48.421C299.217 50.011 298.74 51.4243 297.786 52.661C296.832 53.8977 295.542 54.8693 293.917 55.576C292.291 56.2473 290.454 56.583 288.405 56.583ZM318.789 28.917C319.778 28.917 320.927 29.023 322.234 29.235C323.577 29.4117 324.972 29.6767 326.421 30.03C326.244 31.3373 326.015 32.945 325.732 34.853C325.449 36.761 325.167 38.722 324.884 40.736C324.637 42.7147 324.425 44.552 324.248 46.248C324.071 47.9087 323.983 49.1983 323.983 50.117C323.983 50.753 324.054 51.177 324.195 51.389C324.372 51.5657 324.548 51.654 324.725 51.654C325.149 51.654 325.591 51.3537 326.05 50.753C326.509 50.1523 326.969 49.057 327.428 47.467L330.29 48.315C330.149 49.057 329.901 49.905 329.548 50.859C329.195 51.813 328.718 52.7317 328.117 53.615C327.552 54.463 326.827 55.1697 325.944 55.735C325.096 56.3003 324.089 56.583 322.923 56.583C321.792 56.583 320.803 56.2473 319.955 55.576C319.107 54.9047 318.683 53.6327 318.683 51.76C318.683 51.3007 318.701 50.7883 318.736 50.223C318.771 49.6577 318.824 49.1453 318.895 48.686H318.842C317.535 51.76 316.104 53.8447 314.549 54.94C313.03 56.0353 311.457 56.583 309.832 56.583C307.889 56.583 306.228 55.8057 304.85 54.251C303.472 52.661 302.783 50.223 302.783 46.937C302.783 44.499 303.136 42.2023 303.843 40.047C304.55 37.8917 305.592 35.9837 306.97 34.323C308.348 32.627 310.026 31.302 312.005 30.348C313.984 29.394 316.245 28.917 318.789 28.917ZM316.828 32.415C314.814 32.415 313.171 33.6693 311.899 36.178C310.662 38.6867 310.044 42.3613 310.044 47.202C310.044 48.6507 310.221 49.799 310.574 50.647C310.927 51.4597 311.422 51.866 312.058 51.866C312.835 51.866 313.56 51.4773 314.231 50.7C314.902 49.8873 315.503 48.8097 316.033 47.467C316.598 46.089 317.075 44.5697 317.464 42.909C317.888 41.213 318.224 39.4993 318.471 37.768C318.754 36.0013 318.93 34.323 319.001 32.733C318.824 32.6623 318.506 32.5917 318.047 32.521C317.623 32.4503 317.217 32.415 316.828 32.415ZM337.012 15.773C338.673 15.7377 339.856 16.2677 340.563 17.363C341.305 18.423 341.641 19.748 341.57 21.338C341.499 23.034 341.005 24.889 340.086 26.903C339.203 28.8817 337.878 30.8957 336.111 32.945L334.15 31.461C334.539 30.9663 334.998 30.2597 335.528 29.341C336.058 28.4223 336.535 27.4153 336.959 26.32C337.383 25.1893 337.595 24.1117 337.595 23.087C337.348 23.1577 337.136 23.2107 336.959 23.246C336.818 23.246 336.659 23.246 336.482 23.246C335.528 23.246 334.698 22.9633 333.991 22.398C333.284 21.8327 332.949 20.9493 332.984 19.748C333.055 18.688 333.461 17.7693 334.203 16.992C334.945 16.1793 335.881 15.773 337.012 15.773ZM359.108 28.917C360.098 28.917 361.246 29.023 362.553 29.235C363.896 29.4117 365.292 29.6767 366.74 30.03C366.564 31.3373 366.334 32.945 366.051 34.853C365.769 36.761 365.486 38.722 365.203 40.736C364.956 42.7147 364.744 44.552 364.567 46.248C364.391 47.9087 364.302 49.1983 364.302 50.117C364.302 50.753 364.373 51.177 364.514 51.389C364.691 51.5657 364.868 51.654 365.044 51.654C365.468 51.654 365.91 51.3537 366.369 50.753C366.829 50.1523 367.288 49.057 367.747 47.467L370.609 48.315C370.468 49.057 370.221 49.905 369.867 50.859C369.514 51.813 369.037 52.7317 368.436 53.615C367.871 54.463 367.147 55.1697 366.263 55.735C365.415 56.3003 364.408 56.583 363.242 56.583C362.112 56.583 361.122 56.2473 360.274 55.576C359.426 54.9047 359.002 53.6327 359.002 51.76C359.002 51.3007 359.02 50.7883 359.055 50.223C359.091 49.6577 359.144 49.1453 359.214 48.686H359.161C357.854 51.76 356.423 53.8447 354.868 54.94C353.349 56.0353 351.777 56.583 350.151 56.583C348.208 56.583 346.547 55.8057 345.169 54.251C343.791 52.661 343.102 50.223 343.102 46.937C343.102 44.499 343.456 42.2023 344.162 40.047C344.869 37.8917 345.911 35.9837 347.289 34.323C348.667 32.627 350.346 31.302 352.324 30.348C354.303 29.394 356.564 28.917 359.108 28.917ZM357.147 32.415C355.133 32.415 353.49 33.6693 352.218 36.178C350.982 38.6867 350.363 42.3613 350.363 47.202C350.363 48.6507 350.54 49.799 350.893 50.647C351.247 51.4597 351.741 51.866 352.377 51.866C353.155 51.866 353.879 51.4773 354.55 50.7C355.222 49.8873 355.822 48.8097 356.352 47.467C356.918 46.089 357.395 44.5697 357.783 42.909C358.207 41.213 358.543 39.4993 358.79 37.768C359.073 36.0013 359.25 34.323 359.32 32.733C359.144 32.6623 358.826 32.5917 358.366 32.521C357.942 32.4503 357.536 32.415 357.147 32.415ZM381.465 56.583C379.769 56.583 378.197 56.3357 376.748 55.841C375.335 55.3463 374.187 54.6397 373.303 53.721C372.42 52.767 371.978 51.6717 371.978 50.435C371.978 49.3397 372.296 48.4563 372.932 47.785C373.604 47.0783 374.416 46.725 375.37 46.725C376.324 46.725 377.102 47.043 377.702 47.679C378.303 48.315 378.603 49.0923 378.603 50.011C378.603 50.541 378.497 51.071 378.285 51.601C378.462 51.9543 378.921 52.29 379.663 52.608C380.441 52.926 381.094 53.085 381.624 53.085C383.179 53.085 384.257 52.7493 384.857 52.078C385.493 51.4067 385.811 50.647 385.811 49.799C385.811 48.8097 385.264 47.9617 384.168 47.255C383.073 46.513 381.836 45.7533 380.458 44.976C378.798 44.022 377.42 43.1387 376.324 42.326C375.229 41.5133 374.416 40.6653 373.886 39.782C373.392 38.8633 373.144 37.7857 373.144 36.549C373.144 35.3123 373.533 34.111 374.31 32.945C375.088 31.779 376.218 30.825 377.702 30.083C379.222 29.3057 381.059 28.917 383.214 28.917C384.628 28.917 386.006 29.1467 387.348 29.606C388.726 30.0653 389.857 30.7367 390.74 31.62C391.659 32.468 392.118 33.5103 392.118 34.747C392.118 35.6657 391.818 36.4783 391.217 37.185C390.617 37.8917 389.804 38.245 388.779 38.245C387.825 38.245 387.048 37.927 386.447 37.291C385.882 36.6197 385.599 35.86 385.599 35.012C385.599 34.4467 385.705 33.9343 385.917 33.475C385.635 33.0863 385.193 32.8213 384.592 32.68C384.027 32.5033 383.497 32.415 383.002 32.415C382.26 32.415 381.483 32.6623 380.67 33.157C379.858 33.6163 379.451 34.2877 379.451 35.171C379.451 35.6657 379.557 36.1073 379.769 36.496C380.017 36.8493 380.494 37.2733 381.2 37.768C381.907 38.2273 382.967 38.881 384.38 39.729C385.546 40.4003 386.73 41.1247 387.931 41.902C389.168 42.6793 390.193 43.598 391.005 44.658C391.853 45.6827 392.277 46.937 392.277 48.421C392.277 50.011 391.8 51.4243 390.846 52.661C389.892 53.8977 388.603 54.8693 386.977 55.576C385.352 56.2473 383.515 56.583 381.465 56.583ZM411.85 28.917C412.839 28.917 413.987 29.023 415.295 29.235C416.637 29.4117 418.033 29.6767 419.482 30.03C419.305 31.3373 419.075 32.945 418.793 34.853C418.51 36.761 418.227 38.722 417.945 40.736C417.697 42.7147 417.485 44.552 417.309 46.248C417.132 47.9087 417.044 49.1983 417.044 50.117C417.044 50.753 417.114 51.177 417.256 51.389C417.432 51.5657 417.609 51.654 417.786 51.654C418.21 51.654 418.651 51.3537 419.111 50.753C419.57 50.1523 420.029 49.057 420.489 47.467L423.351 48.315C423.209 49.057 422.962 49.905 422.609 50.859C422.255 51.813 421.778 52.7317 421.178 53.615C420.612 54.463 419.888 55.1697 419.005 55.735C418.157 56.3003 417.15 56.583 415.984 56.583C414.853 56.583 413.864 56.2473 413.016 55.576C412.168 54.9047 411.744 53.6327 411.744 51.76C411.744 51.3007 411.761 50.7883 411.797 50.223C411.832 49.6577 411.885 49.1453 411.956 48.686H411.903C410.595 51.76 409.164 53.8447 407.61 54.94C406.09 56.0353 404.518 56.583 402.893 56.583C400.949 56.583 399.289 55.8057 397.911 54.251C396.533 52.661 395.844 50.223 395.844 46.937C395.844 44.499 396.197 42.2023 396.904 40.047C397.61 37.8917 398.653 35.9837 400.031 34.323C401.409 32.627 403.087 31.302 405.066 30.348C407.044 29.394 409.306 28.917 411.85 28.917ZM409.889 32.415C407.875 32.415 406.232 33.6693 404.96 36.178C403.723 38.6867 403.105 42.3613 403.105 47.202C403.105 48.6507 403.281 49.799 403.635 50.647C403.988 51.4597 404.483 51.866 405.119 51.866C405.896 51.866 406.62 51.4773 407.292 50.7C407.963 49.8873 408.564 48.8097 409.094 47.467C409.659 46.089 410.136 44.5697 410.525 42.909C410.949 41.213 411.284 39.4993 411.532 37.768C411.814 36.0013 411.991 34.323 412.062 32.733C411.885 32.6623 411.567 32.5917 411.108 32.521C410.684 32.4503 410.277 32.415 409.889 32.415Z" fill="#F6B800"/>
<path d="M20 236H443.5" stroke="#F6B800" stroke-width="2"/>
<path d="M20 1H443.5" stroke="#F6B800" stroke-width="2"/>
<path d="M251.188 216.19C255.738 216.19 259.638 217.945 262.888 221.455C266.008 225.095 267.568 229.775 267.568 235.495C267.568 240.435 266.333 245.44 263.863 250.51C261.393 255.71 258.013 260.455 253.723 264.745C249.433 269.035 244.623 272.35 239.293 274.69L233.053 261.04C235.653 259.09 238.058 257.01 240.268 254.8C242.478 252.59 243.973 249.99 244.753 247C242.413 246.22 240.268 244.4 238.318 241.54C236.238 238.81 235.198 235.755 235.198 232.375C235.198 228.475 236.758 224.77 239.878 221.26C242.868 217.88 246.638 216.19 251.188 216.19ZM212.773 216.19C217.193 216.19 221.028 217.945 224.278 221.455C227.398 225.095 228.958 229.775 228.958 235.495C228.958 240.435 227.723 245.44 225.253 250.51C222.783 255.71 219.468 260.455 215.308 264.745C211.018 269.035 206.208 272.35 200.878 274.69L194.443 261.04C197.043 259.09 199.513 257.01 201.853 254.8C204.063 252.59 205.493 249.99 206.143 247C203.933 246.22 201.788 244.4 199.708 241.54C197.498 238.81 196.393 235.755 196.393 232.375C196.393 228.475 198.018 224.77 201.268 221.26C204.388 217.88 208.223 216.19 212.773 216.19Z" fill="#009B4D"/>
<path d="M262.888 221.455L264.407 220.153L264.382 220.124L264.356 220.096L262.888 221.455ZM263.863 250.51L262.065 249.634L262.061 249.643L262.057 249.652L263.863 250.51ZM239.293 274.69L237.475 275.522L238.294 277.313L240.097 276.521L239.293 274.69ZM233.053 261.04L231.853 259.44L230.565 260.407L231.235 261.872L233.053 261.04ZM240.268 254.8L241.683 256.214L241.683 256.214L240.268 254.8ZM244.753 247L246.689 247.505L247.161 245.694L245.386 245.103L244.753 247ZM238.318 241.54L239.971 240.413L239.941 240.37L239.909 240.328L238.318 241.54ZM239.878 221.26L241.373 222.589L241.376 222.585L239.878 221.26ZM224.278 221.455L225.797 220.153L225.772 220.124L225.746 220.096L224.278 221.455ZM225.253 250.51L223.455 249.634L223.451 249.643L223.447 249.652L225.253 250.51ZM215.308 264.745L216.723 266.159L216.734 266.148L216.744 266.137L215.308 264.745ZM200.878 274.69L199.069 275.543L199.9 277.304L201.682 276.521L200.878 274.69ZM194.443 261.04L193.243 259.44L191.939 260.418L192.634 261.893L194.443 261.04ZM201.853 254.8L203.227 256.254L203.247 256.234L203.268 256.214L201.853 254.8ZM206.143 247L208.098 247.425L208.473 245.701L206.809 245.114L206.143 247ZM199.708 241.54L201.326 240.364L201.296 240.322L201.263 240.282L199.708 241.54ZM201.268 221.26L202.736 222.619L202.738 222.617L201.268 221.26ZM251.188 218.19C255.15 218.19 258.528 219.689 261.421 222.814L264.356 220.096C260.749 216.201 256.327 214.19 251.188 214.19L251.188 218.19ZM261.37 222.757C264.122 225.967 265.568 230.156 265.568 235.495L269.568 235.495C269.568 229.394 267.895 224.223 264.407 220.153L261.37 222.757ZM265.568 235.495C265.568 240.091 264.421 244.798 262.065 249.634L265.661 251.386C268.245 246.082 269.568 240.779 269.568 235.495L265.568 235.495ZM262.057 249.652C259.69 254.635 256.446 259.194 252.309 263.331L255.138 266.159C259.58 261.716 263.097 256.785 265.67 251.368L262.057 249.652ZM252.309 263.331C248.187 267.453 243.582 270.623 238.489 272.859L240.097 276.521C245.665 274.077 250.679 270.617 255.138 266.159L252.309 263.331ZM241.112 273.858L234.872 260.208L231.235 261.872L237.475 275.522L241.112 273.858ZM234.253 262.64C236.926 260.635 239.403 258.494 241.683 256.214L238.854 253.386C236.714 255.526 234.381 257.545 231.853 259.44L234.253 262.64ZM241.683 256.214C244.141 253.756 245.818 250.843 246.689 247.505L242.818 246.495C242.129 249.137 240.816 251.424 238.854 253.386L241.683 256.214ZM245.386 245.103C243.599 244.507 241.772 243.054 239.971 240.413L236.666 242.667C238.765 245.746 241.228 247.933 244.121 248.897L245.386 245.103ZM239.909 240.328C238.09 237.94 237.198 235.31 237.198 232.375L233.198 232.375C233.198 236.2 234.387 239.68 236.728 242.752L239.909 240.328ZM237.198 232.375C237.198 229.061 238.509 225.811 241.373 222.589L238.384 219.931C235.008 223.729 233.198 227.889 233.198 232.375L237.198 232.375ZM241.376 222.585C243.983 219.638 247.206 218.19 251.188 218.19L251.188 214.19C246.071 214.19 241.754 216.122 238.38 219.935L241.376 222.585ZM212.773 218.19C216.587 218.19 219.905 219.675 222.811 222.814L225.746 220.096C222.152 216.215 217.8 214.19 212.773 214.19L212.773 218.19ZM222.76 222.757C225.512 225.967 226.958 230.156 226.958 235.495L230.958 235.495C230.958 229.394 229.285 224.223 225.797 220.153L222.76 222.757ZM226.958 235.495C226.958 240.091 225.811 244.798 223.455 249.634L227.051 251.386C229.635 246.082 230.958 240.779 230.958 235.495L226.958 235.495ZM223.447 249.652C221.074 254.647 217.887 259.213 213.873 263.353L216.744 266.137C221.05 261.697 224.493 256.773 227.06 251.368L223.447 249.652ZM213.894 263.331C209.772 267.453 205.167 270.623 200.074 272.859L201.682 276.521C207.25 274.077 212.264 270.617 216.723 266.159L213.894 263.331ZM202.688 273.837L196.253 260.187L192.634 261.893L199.069 275.543L202.688 273.837ZM195.643 262.64C198.303 260.645 200.831 258.516 203.227 256.254L200.48 253.346C198.196 255.504 195.784 257.535 193.243 259.44L195.643 262.64ZM203.268 256.214C205.743 253.739 207.365 250.798 208.098 247.425L204.189 246.575C203.622 249.182 202.384 251.441 200.439 253.386L203.268 256.214ZM206.809 245.114C205.13 244.521 203.282 243.053 201.326 240.364L198.091 242.716C200.295 245.747 202.737 247.919 205.478 248.886L206.809 245.114ZM201.263 240.282C199.329 237.893 198.393 235.278 198.393 232.375L194.393 232.375C194.393 236.232 195.668 239.727 198.154 242.798L201.263 240.282ZM198.393 232.375C198.393 229.087 199.747 225.847 202.736 222.619L199.801 219.901C196.29 223.693 194.393 227.863 194.393 232.375L198.393 232.375ZM202.738 222.617C205.484 219.642 208.789 218.19 212.773 218.19L212.773 214.19C207.658 214.19 203.293 216.118 199.799 219.903L202.738 222.617Z" fill="#F6B800"/>
</svg>
